# xmcd CD database file
#
# Track frame offsets:
#	150
#	9288
#	16756
#	39340
#	70724
#	81875
#	93791
#	104968
#	116575
#	125733
#	145375
#	153095
#	166960
#	180749
#	192552
#	200248
#	207080
#
# Disc length: 3091 seconds
#
# Revision: 0
# Processed by: cddbd v1.5PL3 Copyright (c) Steve Scherf et al.
# Submitted via: CDex 1.40Release
#
DISCID=e70c1111
DTITLE=American Indian - Roots of the American Indian
DYEAR=1900
DGENRE=Native American
TTITLE0=Fast Sioux war dance
TTITLE1=Navajo gift dance song
TTITLE2=Peyoute song
TTITLE3=Rabbit dance - Senecca
TTITLE4=Sioux jingle dance
TTITLE5=Kiowa war dance
TTITLE6=Sun dance song - Apache
TTITLE7=Crow push dance song
TTITLE8=Cheyenne war dance
TTITLE9=Traditional Women´s song
TTITLE10=Ponca war dance
TTITLE11=Payute ceremonial song
TTITLE12=The bear dance - Ute
TTITLE13=Shawneee stomp dance
TTITLE14=Arikara war dance
TTITLE15=Owl song - Sioux
TTITLE16=Cherokee long dance
EXTD=ID3G: 64
EXTT0=
EXTT1=
EXTT2=
EXTT3=
EXTT4=
EXTT5=
EXTT6=
EXTT7=
EXTT8=
EXTT9=
EXTT10=
EXTT11=
EXTT12=
EXTT13=
EXTT14=
EXTT15=
EXTT16=
PLAYORDER=
